# xmcd CD database file
#
# Track frame offsets:
#	187
#	22935
#	40950
#	57532
#	76590
#	92390
#	107515
#	130170
#	146160
#
# Disc length: 2232 seconds
#
# Revision: 0
# Processed by: cddbd v1.5.2PL0 Copyright (c) Steve Scherf et al.
# Submitted via: CDex 1.70beta2
#
DISCID=6908b609
DTITLE=Harumi Kaneko - I Love New York
DYEAR=1979
DGENRE=Jazz
TTITLE0=How About You
TTITLE1=Too Shy To Say
TTITLE2=I've Got Just About Everything
TTITLE3=But For Now
TTITLE4=Comin' Home Baby
TTITLE5=You Took Advantage Of Me
TTITLE6=These Foolish Things Remind Me Of You
TTITLE7=A Good Man Is Hard To Find
TTITLE8=Brown Skin Girl
EXTD=YEAR: 1979
EXTT0=
EXTT1=
EXTT2=
EXTT3=
EXTT4=
EXTT5=
EXTT6=
EXTT7=
EXTT8=
PLAYORDER=
